# xmcd
#
# Track frame offsets: 
#        150
#        13507
#        42788
#        63315
#        66284
#        84489
#        118527
#        140474
#        143609
#        161358
#        179516
#        198504
#        200995
#        214866
#        231209
#
# Disc length: 3284 seconds
#
# Revision: 0
# Processed by: cddbd v1.5.2PL0 Copyright (c) Steve Scherf et al.
# Submitted via: ExactAudioCopy v0.99pb3
#
DISCID=d80cd20f
DTITLE=Biscuit Rollers - South Bound Freight Train
DYEAR=2008
DGENRE=Blues
TTITLE0=32-20 Blues
TTITLE1=Preachin' Blues
TTITLE2=Deep Elem Blues
TTITLE3=Swamp Biscuits
TTITLE4=Having A Real Bad Day
TTITLE5=Kokomo - Write Me a Few More Lines - Kokomo
TTITLE6=Big Mama's Door
TTITLE7=Johannesburg
TTITLE8=New Doubting Jesus Blues
TTITLE9=France Blues
TTITLE10=Catch Me Crescent
TTITLE11=B.C.L.U.
TTITLE12=I Can't Be Satisfied
TTITLE13=Birmingham Blues
TTITLE14=Mr. Charlie
EXTD=
EXTT0=
EXTT1=
EXTT2=
EXTT3=
EXTT4=
EXTT5=
EXTT6=
EXTT7=
EXTT8=
EXTT9=
EXTT10=
EXTT11=
EXTT12=
EXTT13=
EXTT14=
PLAYORDER=
